<?xml version="1.0" encoding="utf-8"?>
<!-- Generator: Adobe Illustrator 19.0.0, SVG Export Plug-In . SVG Version: 6.00 Build 0)  -->
<svg version="1.1" id="Camada_1" focusable="false" xmlns="http://www.w3.org/2000/svg" xmlns:xlink="http://www.w3.org/1999/xlink"
	 x="0px" y="0px" viewBox="74 -74 448 448" style="enable-background:new 74 -74 448 448;" xml:space="preserve">
<path d="M474-74H122c-26.5,0-48,21.5-48,48v352c0,26.5,21.5,48,48,48h137.3V221.7h-63V150h63V95.4c0-62.2,37-96.5,93.7-96.5
	c27.1,0,55.5,4.8,55.5,4.8v61h-31.3c-30.8,0-40.4,19.1-40.4,38.7V150h68.8l-11,71.7h-57.8V374H474c26.5,0,48-21.5,48-48V-26
	C522-52.5,500.5-74,474-74z"/>
</svg>
